<svg width="44" height="31" viewBox="0 0 44 31" fill="none" xmlns="http://www.w3.org/2000/svg">
<path d="M0.0834045 27.542V3.35C0.0834045 3.322 0.125102 3.056 0.208495 2.552L14.3438 14.732L0.250192 28.382C0.139 27.99 0.0834045 27.71 0.0834045 27.542ZM1.95977 0.872002C2.15435 0.788002 2.39064 0.746002 2.66862 0.746002H40.738C40.9881 0.746002 41.2383 0.788002 41.4885 0.872002L27.3115 13.094L25.4352 14.606L21.7241 17.672L18.0131 14.606L16.1367 13.094L1.95977 0.872002ZM2.00147 30.02L16.2201 16.286L21.7241 20.78L27.2281 16.286L41.4468 30.02C41.2244 30.104 40.9881 30.146 40.738 30.146H2.66862C2.44623 30.146 2.22385 30.104 2.00147 30.02ZM29.1045 14.732L43.1981 2.552C43.2815 2.804 43.3232 3.07 43.3232 3.35V27.542C43.3232 27.794 43.2815 28.074 43.1981 28.382L29.1045 14.732Z" fill="#F2F2F2"/>
</svg>
