<svg width="48" height="47" viewBox="0 0 48 47" fill="none" xmlns="http://www.w3.org/2000/svg">
<path fill-rule="evenodd" clip-rule="evenodd" d="M24 0C10.7438 0 0 10.7438 0 24C0 34.5994 6.8775 43.5947 16.4119 46.7766C17.6081 46.9997 18.0553 46.2506 18.0553 45.6197C18.0553 45.0413 18.0291 43.1606 18.0291 41.1488C11.3484 42.5953 9.94125 38.3213 9.94125 38.3213C8.85 35.5463 7.27125 34.8103 7.27125 34.8103C5.08781 33.3244 7.42875 33.3506 7.42875 33.3506C9.83531 33.5213 11.1112 35.8228 11.1112 35.8228C13.2544 39.4922 16.7269 38.4263 18.0947 37.8216C18.3047 36.27 18.9366 35.2181 19.62 34.6125C14.2941 34.0078 8.67844 31.9425 8.67844 22.7503C8.67844 20.1338 9.61219 17.9897 11.1506 16.3069C10.9003 15.7022 10.0856 13.2563 11.3869 9.95531C11.3869 9.95531 13.3988 9.31125 17.9888 12.4144C19.9088 11.8884 21.96 11.6119 23.9991 11.6119C26.0372 11.625 28.0894 11.8884 30.0094 12.4144C34.5863 9.31125 36.5981 9.95531 36.5981 9.95531C37.9003 13.2563 37.0847 15.7022 36.8344 16.3069C38.3728 17.9906 39.3066 20.1338 39.3066 22.7503C39.3066 31.9688 33.6909 33.9938 28.3519 34.5863C29.2069 35.3363 29.9822 36.7959 29.9822 39.0309C29.9822 42.24 29.9559 44.8303 29.9559 45.6197C29.9559 46.2638 30.39 47.0006 31.5994 46.7766C41.1356 43.5947 48 34.6125 48 24C48 10.7438 37.2562 0 24 0Z" fill="#F2F2F2"/>
<path d="M9.08718 34.455C9.03468 34.5731 8.85093 34.6125 8.67937 34.5337C8.50874 34.455 8.4028 34.2975 8.46937 34.1784C8.52187 34.0603 8.70562 34.0209 8.87718 34.0997C9.0478 34.1784 9.1528 34.3369 9.08718 34.455Z" fill="#F2F2F2"/>
<path d="M10.0603 35.5462C9.94218 35.6512 9.71812 35.5987 9.57374 35.4412C9.41624 35.2706 9.38999 35.0466 9.50812 34.9416C9.62624 34.8366 9.83718 34.8891 9.99468 35.0466C10.1522 35.2172 10.1784 35.4412 10.0603 35.5462Z" fill="#F2F2F2"/>
<path d="M11.0072 36.9272C10.8628 37.0322 10.6256 36.9403 10.4681 36.7172C10.3238 36.5072 10.3238 36.2438 10.4681 36.1388C10.6125 36.0338 10.8497 36.1256 11.0072 36.3356C11.1647 36.5588 11.1647 36.8222 11.0072 36.9272Z" fill="#F2F2F2"/>
<path d="M12.3094 38.2556C12.1781 38.4 11.9016 38.3606 11.6916 38.1638C11.4816 37.9669 11.4281 37.6903 11.5603 37.5459C11.6925 37.4016 11.9812 37.4409 12.1781 37.6378C12.3881 37.8478 12.4406 38.1234 12.3094 38.2556Z" fill="#F2F2F2"/>
<path d="M14.0972 39.0309C14.0447 39.2147 13.7681 39.3075 13.4925 39.2278C13.2159 39.149 13.0453 38.925 13.0978 38.7412C13.1503 38.5575 13.4269 38.4647 13.7025 38.5444C13.9659 38.6231 14.1497 38.8472 14.0972 39.0309Z" fill="#F2F2F2"/>
<path d="M16.0566 39.1762C16.0697 39.3731 15.8334 39.5447 15.5437 39.5447C15.2541 39.5578 15.0309 39.3872 15.0178 39.1894C15.0178 38.9925 15.2409 38.8209 15.5306 38.8209C15.8203 38.8209 16.0566 38.9784 16.0566 39.1762Z" fill="#F2F2F2"/>
<path d="M17.8847 38.8734C17.9241 39.0703 17.7272 39.2681 17.4375 39.3206C17.1609 39.3731 16.8984 39.255 16.8722 39.0572C16.8328 38.8603 17.0428 38.6625 17.3194 38.61C17.5959 38.5575 17.8453 38.6766 17.8847 38.8734Z" fill="#F2F2F2"/>
</svg>
